<svg width="32" height="32" viewBox="0 0 32 32" fill="none" xmlns="http://www.w3.org/2000/svg">
<g clip-path="url(#clip0_696_334)">
<path d="M32 0H0V32H32V0Z" fill="#111111"/>
<path d="M8.79592 27.4533H6.18578C5.19144 26.3729 4.3658 24.8531 3.70883 22.8938C3.06961 20.9163 2.75 18.6732 2.75 16.1646C2.75 13.656 3.06961 11.4129 3.70883 9.43539C4.3658 7.45781 5.19144 5.93801 6.18578 4.87598H8.79592C7.65954 6.04787 6.80725 7.55852 6.23906 9.40792C5.67086 11.239 5.38676 13.4912 5.38676 16.1646C5.38676 18.8197 5.67086 21.0719 6.23906 22.9213C6.80725 24.7707 7.65954 26.2814 8.79592 27.4533Z" fill="#E6E6E6"/>
<path d="M15.3854 4.54688H17.4362L17.2497 10.2873L22.4168 8.2823L23.056 10.3148L17.7824 11.9353L21.1383 16.3574L19.487 17.5933L16.3975 12.8966L13.3079 17.5933L11.6566 16.3574L15.0391 11.9353L9.76562 10.3148L10.3782 8.2823L15.5718 10.2598L15.3854 4.54688Z" fill="#E6E6E6"/>
<path d="M23.8291 4.87598H26.4392C27.4336 5.93801 28.2593 7.45781 28.9162 9.43539C29.5732 11.4129 29.9016 13.656 29.9016 16.1646C29.9016 18.6732 29.5732 20.9163 28.9162 22.8938C28.2593 24.8531 27.4336 26.3729 26.4392 27.4533H23.8291C24.9832 26.2814 25.8355 24.7707 26.386 22.9213C26.9541 21.0719 27.2383 18.8197 27.2383 16.1646C27.2383 13.4912 26.9541 11.239 26.386 9.40792C25.8355 7.55852 24.9832 6.04787 23.8291 4.87598Z" fill="#E6E6E6"/>
</g>
<defs>
<clipPath id="clip0_696_334">
<rect width="32" height="32" fill="white"/>
</clipPath>
</defs>
</svg>
