<svg width="256" height="256" viewBox="0 0 256 256" fill="none" xmlns="http://www.w3.org/2000/svg">
<rect width="256" height="256" fill="#111111"/>
<path d="M78.0106 208.001H59.779C52.8336 200.455 47.0665 189.839 42.4776 176.153C38.0127 162.341 35.7803 146.673 35.7803 129.15C35.7803 111.628 38.0127 95.9601 42.4776 82.1469C47.0665 68.3337 52.8336 57.718 59.779 50.2998H78.0106C70.073 58.4854 64.1199 69.0371 60.1511 81.9551C56.1823 94.7454 54.1979 110.477 54.1979 129.15C54.1979 147.696 56.1823 163.427 60.1511 176.345C64.1199 189.263 70.073 199.815 78.0106 208.001Z" fill="#E6E6E6"/>
<path d="M124.038 48.001H138.363L137.06 88.0977L173.152 74.0926L177.616 88.2898L140.781 99.6089L164.222 130.497L152.687 139.13L131.107 106.324L109.527 139.13L97.9927 130.497L121.619 99.6089L84.7842 88.2898L89.0628 74.0926L125.34 87.9056L124.038 48.001Z" fill="#E6E6E6"/>
<path d="M183.017 50.2998H201.248C208.193 57.718 213.961 68.3337 218.55 82.1469C223.139 95.9601 225.433 111.628 225.433 129.15C225.433 146.673 223.139 162.341 218.55 176.153C213.961 189.839 208.193 200.455 201.248 208.001H183.017C191.078 199.815 197.031 189.263 200.876 176.345C204.845 163.427 206.829 147.696 206.829 129.15C206.829 110.477 204.845 94.7454 200.876 81.9551C197.031 69.0371 191.078 58.4854 183.017 50.2998Z" fill="#E6E6E6"/>
</svg>
